<?xml version="1.0" encoding="utf-8"?><!-- Uploaded to: SVG Repo, www.svgrepo.com, Generator: SVG Repo Mixer Tools -->
<svg fill="#000000" width="750px" height="750px" viewBox="0 0 32 32" version="1.1" xmlns="http://www.w3.org/2000/svg">
    <path d="M30 32h-10c-1.105 0-2-0.895-2-2v-10c0-1.105 0.895-2 2-2h10c1.105 0 2 0.895 2 2v10c0 1.105-0.895 2-2 2zM30 20h-10v10h10v-10zM30 14h-10c-1.105 0-2-0.896-2-2v-10c0-1.105 0.895-2 2-2h10c1.105 0 2 0.895 2 2v10c0 1.104-0.895 2-2 2zM30 2h-10v10h10v-10zM12 32h-10c-1.105 0-2-0.895-2-2v-10c0-1.105 0.895-2 2-2h10c1.104 0 2 0.895 2 2v10c0 1.105-0.896 2-2 2zM12 20h-10v10h10v-10zM12 14h-10c-1.105 0-2-0.896-2-2v-10c0-1.105 0.895-2 2-2h10c1.104 0 2 0.895 2 2v10c0 1.104-0.896 2-2 2zM12 2h-10v10h10v-10z"></path>
</svg>