<?xml version="1.0" ?>
<!-- Uploaded to: SVG Repo, www.svgrepo.com, Generator: SVG Repo Mixer Tools -->
<svg width="800px" height="800px" viewBox="0 0 100 100" id="Layer_1" version="1.1" xml:space="preserve" xmlns="http://www.w3.org/2000/svg" xmlns:xlink="http://www.w3.org/1999/xlink">
<style type="text/css">
	.st0{fill:#7B78CC;}
	.st1{fill:#F15A22;}
	.st2{fill:none;}
</style>
<title/>
<g>
<g id="fill">
<path class="st0" d="M78.3,14.8c-8.9-9.3-22.8-13.5-35.5-12c-12,1.4-23.1,7.4-30.3,17.2c-4,5.6-6.4,12.2-7,19    c-0.1,0.8-0.2,1.6-0.2,2.5C4,45.9,3.9,50.6,4.9,55c1.6,7.3,6.2,13.1,11.6,18c4.6,5,11,8.2,17.4,10.9c1.3,0.6,2.8,0.8,4.2,0.8    c1.5,0.8,3.2,1,4.9,0.6c1.2-0.3,2.4-0.4,3.7-0.4c4.4-0.1,8.2-4.5,6.8-8.9c-1.8-5.4-3.3-10.9-4.4-16.5c-0.2-1.2-0.5-2.5-0.7-3.7    c0.2-0.4,0.3-0.8,0.3-1.3c0.1-0.7,0.3-1.4,0.5-2.1c0.1,0,0.2,0.1,0.4,0.2c1,0.2,2.1,0.3,3.1,0.3c2.7,0.4,5.5,0.9,8.2,1.3    c5.2,0.8,10.4,1.6,15.4,3.4c3.9,1.4,7.3-1.6,8.6-4.9c1.2-3,1.7-6.2,1.5-9.4C88.7,33.1,85.6,22.4,78.3,14.8z"/>
<path class="st1" d="M79.9,56.9c-8.4-1.6-17.2-2-24.6-6.8c-4.3-2.8-8.2,2.5-6.4,6.4c4.1,9,4.3,19,7.2,28.3    c-0.1,1.7-0.2,3.5-0.3,5.2c-0.1,2.2,1.6,3.7,3.4,4.5c8,3.3,15.9-1.8,22.3-6.4c6.2-4.5,13-10.8,13.6-19    C95.7,60.3,86.9,58.2,79.9,56.9z"/>
</g>
<g id="line_copy">
<path class="st2" d="M82.1,34.8c-0.1,4.7-1.1,9.2-3,13.5c1.3,2.2,2.8,4.2,4.6,6c0,0,0.1,0.1,0.1,0.1c0-0.1,0.1-0.2,0.1-0.4    c0.6-2.5,0.9-5.2,0.9-7.8c0-4.7-1-9.4-2.9-13.7C82.1,33.3,82.1,34,82.1,34.8z"/>
<path class="st2" d="M83.5,73.5c-4.4,6.2-10.4,11-17.3,13.9c-2.7,1.1-5.6,1.9-8.5,2.3c0.7,1.5,1.8,2.8,3.1,3.8    c1.3,0.8,2.9,1.3,4.4,1.2c2.1-0.1,4.1-0.5,6.1-1.1c5.4-1.5,8.9-4.4,11.9-7.1c2.8-2.5,6.8-6.1,9.2-12c0.8-1.7,1.2-3.5,1.3-5.4    c0-0.4,0-0.8-0.1-1.2c-0.3-1.5-1.1-2.8-2.2-3.9c-0.5-0.5-1.1-1-1.7-1.5C88.1,66.3,86,70,83.5,73.5z"/>
<path class="st2" d="M47.5,53.5c-0.1-0.8-0.2-1.7-0.2-2.5c0-0.2,0-0.3,0-0.5c0-0.2,0.1-0.4,0.2-0.6c0.1-0.3,0.3-0.5,0.6-0.7    c0.4-0.3,0.9-0.5,1.5-0.6l0.1,0c0.2,0,0.3,0,0.5,0c0.8,0,1.6,0.2,2.3,0.5l29,7.7l0.1,0c0.1-0.2,0.2-0.3,0.3-0.5l0,0    c-2.1-2.1-4-4.5-5.4-7.2l0,0c-0.1-0.1-0.1-0.3-0.1-0.4c-0.9-0.4-1.8-0.7-2.7-1c-10.7-4-21.7-6.8-33-8.4l-0.3-0.1    C40,39.1,39.8,39,39.6,39c-0.1,0-0.2,0-0.2,0l0,0c0,0.1-0.1,0.1-0.1,0.2C39,40,38.9,40.8,39,41.6c0,2.7,0.7,7.9,2.9,17.4l-1.4,0.3    l1.4-0.3c1,4.1,2.4,9.6,4.4,16.1c0.4,0,0.7,0.2,1,0.5l5.1,6.3c0.1-0.1,0.3-0.3,0.4-0.3c-0.7-3.4-1.5-7.2-2.2-10.9    C49.2,63.9,48,57.3,47.5,53.5z"/>
<path class="st2" d="M45.2,77.5c-1.9,0.2-3.8,0.3-5.7,0.3c-6.8,0.1-13.6-1.4-19.7-4.4c-2-1-4-2.2-5.7-3.6c2.4,3.4,5.4,6.3,8.9,8.6    c5.3,3.3,11.4,5.1,17.6,5.1c0.8,0,1.5,0,2.3-0.1c2.1-0.2,4.3-0.5,6.3-1.1L45.2,77.5z"/>
<path d="M6.6,61.3c0.9,2.8,2.1,5.5,3.6,8c2.8,4.7,6.6,8.6,11.1,11.5c5.7,3.6,12.4,5.5,19.1,5.6c0.8,0,1.7,0,2.5-0.1    c2.7-0.2,5.4-0.7,7.9-1.5c0.3,0.2,0.6,0.3,0.9,0.3l0,0c0.5,0,1.1-0.2,1.6-0.4c0.3,1.5,0.6,3,0.9,4.2c0,0.2,0.1,0.4,0.2,0.5    c0,0.2,0,0.4,0.1,0.5l0,0c0.9,2.4,2.5,4.5,4.6,5.9c1.8,1.1,3.8,1.7,5.9,1.7c2.3-0.1,4.7-0.5,6.9-1.2c6-1.7,9.9-5,13-7.7    c2.9-2.5,7.3-6.5,10-13.1c0.9-2,1.4-4.2,1.5-6.5c0-0.6-0.1-1.2-0.2-1.9l0,0c-0.5-2-1.4-3.8-2.8-5.2c-0.9-0.9-1.8-1.7-2.9-2.4    c-0.2-0.1-0.4-0.2-0.7-0.2c0,0-0.1-0.1-0.1-0.1c-1.3-0.8-2.8-1.4-4.3-1.7c-0.2-0.1-0.5-0.1-0.7-0.1c0.1-0.1,0.1-0.2,0.2-0.3    c0.1-0.1,0.3-0.2,0.4-0.3c0.4-0.3,0.7-0.7,0.9-1.1c0.2-0.3,0.3-0.7,0.4-1c0.7-2.8,1-5.6,1-8.5c0-8.8-3.1-17.3-8.9-23.9    c-2.8-4.6-6.7-8.5-11.4-11.2c-6.7-3.8-14.2-5.9-21.9-5.9c-3.6,0-7.3,0.5-10.8,1.5C26,9.4,18.2,15.4,12.6,23S3.5,39.5,3.5,48.2    c-0.1,4.5,1,9,3.1,13C6.6,61.2,6.6,61.3,6.6,61.3z M14.8,24.7c5.3-7.1,12.7-12.8,20.7-15.1c3.2-0.9,6.6-1.4,10-1.4    c7.2,0,14.2,1.9,20.5,5.5c3.9,2.2,7.2,5.3,9.7,9c0,0.3,0.1,0.6,0.4,0.8c0.2,0.2,0.3,0.3,0.5,0.5c0.8,1.4,1.4,2.8,1.8,4.4    c0.6,2.1,0.9,4.3,0.9,6.4c-0.1,3.8-0.8,7.6-2.3,11.2c-0.8-0.3-1.7-0.7-2.5-1c-10.8-4.1-22-6.9-33.5-8.6c-0.5-0.2-0.9-0.2-1.4-0.2    c-0.6,0-1.1,0.1-1.6,0.4c-0.3,0.2-0.5,0.4-0.7,0.6c-0.4,0.5-0.7,1.1-0.8,1.7c-0.2,0.9-0.3,1.8-0.3,2.7c0,3.1,0.7,8.5,3,18.1l0,0    c0.9,3.9,2.3,9.1,4.1,15.2C42,75,40.7,75,39.5,75C33.1,75.1,26.7,73.7,21,71c-4.9-2.3-9-6.1-11.8-10.8c0-0.1,0-0.1-0.1-0.2    c-0.1-0.2-0.2-0.4-0.3-0.6c-1.7-3.5-2.6-7.3-2.5-11.2C6.3,40.3,9.5,31.8,14.8,24.7z M42.8,83.5c-0.8,0.1-1.6,0.1-2.3,0.1    c-6.2,0-12.3-1.8-17.6-5.1c-3.5-2.3-6.5-5.2-8.9-8.6c1.8,1.4,3.7,2.6,5.7,3.6c6.2,3,12.9,4.4,19.7,4.4c1.9,0,3.8-0.1,5.7-0.3    l3.9,4.8C47,82.9,44.9,83.3,42.8,83.5z M52.4,81.9l-5.1-6.3c-0.2-0.3-0.6-0.5-1-0.5c-2-6.5-3.4-12-4.4-16.1l-1.4,0.3l1.4-0.3    C39.6,49.5,39,44.3,39,41.6c0-0.8,0.1-1.6,0.3-2.3c0-0.1,0.1-0.1,0.1-0.2l0,0c0.1,0,0.2-0.1,0.2,0c0.2,0,0.4,0.1,0.7,0.1l0.3,0.1    c11.3,1.6,22.3,4.4,33,8.4c0.9,0.3,1.8,0.7,2.7,1c0,0.1,0.1,0.3,0.1,0.4l0,0c1.5,2.6,3.3,5.1,5.4,7.2l0,0    c-0.1,0.2-0.2,0.3-0.3,0.5l-0.1,0l-29-7.7c-0.7-0.3-1.5-0.5-2.3-0.5c-0.2,0-0.3,0-0.5,0l-0.1,0c-0.5,0.1-1,0.3-1.5,0.6    c-0.3,0.2-0.4,0.4-0.6,0.7c-0.1,0.2-0.1,0.4-0.2,0.6c0,0.2,0,0.3,0,0.5c0,0.8,0.1,1.7,0.2,2.5c0.5,3.7,1.7,10.3,3.1,17.1    c0.7,3.7,1.5,7.5,2.2,10.9C52.6,81.7,52.5,81.8,52.4,81.9z M56.8,87c-1.1-5.1-2.7-12.7-4-19.7c-0.7-3.8-1.4-7.4-1.9-10.3    c-0.2-1.5-0.4-2.7-0.6-3.7c-0.1-0.7-0.2-1.3-0.2-1.7c0.5,0,0.9,0.1,1.4,0.3l0.1,0l29.1,7.7l0.1,0c1.4,0.3,2.8,0.5,4.1,0.8    c0.8,0.2,1.6,0.4,2.4,0.8c-1.6,3.8-3.6,7.4-6,10.7c-4.1,5.7-9.7,10.2-16.1,13C62.4,85.9,59.6,86.6,56.8,87z M91.5,63.9    c1.1,1.1,1.8,2.4,2.2,3.9c0.1,0.4,0.1,0.8,0.1,1.2c-0.1,1.9-0.5,3.7-1.3,5.4c-2.4,6-6.4,9.5-9.2,12c-3,2.7-6.5,5.6-11.9,7.1    c-2,0.7-4,1-6.1,1.1c-1.6,0-3.1-0.4-4.4-1.2c-1.4-0.9-2.5-2.2-3.1-3.8c2.9-0.4,5.8-1.2,8.5-2.3c7-2.9,13-7.8,17.3-13.9    c2.5-3.4,4.6-7.2,6.3-11.1C90.4,62.8,90.9,63.3,91.5,63.9z M84,54c0,0.1-0.1,0.2-0.1,0.4c0,0-0.1-0.1-0.1-0.1    c-1.8-1.8-3.3-3.8-4.6-6c1.9-4.3,2.9-8.8,3-13.5c0-0.8,0-1.5-0.1-2.3c1.9,4.3,2.9,9,2.9,13.7C84.9,48.9,84.6,51.5,84,54L84,54z"/>
<polygon points="38,36.6 38,36.6 38,36.6   "/>
</g>
</g>
</svg>